<svg xmlns="http://www.w3.org/2000/svg" width="24" height="28" viewBox="0 0 24 28" fill="none" class="h-[21px] w-[18px] sm:h-[28px] w-[24px]">
<path d="M3 3.39478H5L5.4 5.65791M7 14.7105H17L21 5.65791H5.4M7 14.7105L5.4 5.65791M7 14.7105L4.70711 17.305C4.07714 18.0179 4.52331 19.2367 5.41421 19.2367H17M17 19.2367C15.8954 19.2367 15 20.25 15 21.4999C15 22.7498 15.8954 23.763 17 23.763C18.1046 23.763 19 22.7498 19 21.4999C19 20.25 18.1046 19.2367 17 19.2367ZM9 21.4999C9 22.7498 8.10457 23.763 7 23.763C5.89543 23.763 5 22.7498 5 21.4999C5 20.25 5.89543 19.2367 7 19.2367C8.10457 19.2367 9 20.25 9 21.4999Z" stroke="#1E1E1E" stroke-width="2" stroke-linecap="round" stroke-linejoin="round"/>
</svg>